<?xml version="1.0" encoding="utf-8"?>
<!-- Generator: Adobe Illustrator 24.3.0, SVG Export Plug-In . SVG Version: 6.00 Build 0)  -->
<svg version="1.1" id="Capa_1" xmlns="http://www.w3.org/2000/svg" xmlns:xlink="http://www.w3.org/1999/xlink" x="0px" y="0px"
	 width="41px" height="41px" viewBox="0 0 41 41" style="enable-background:new 0 0 41 41;" xml:space="preserve">
<style type="text/css">
	.st0{clip-path:url(#SVGID_2_);}
	.st1{fill:#1F1F2D;}
	.st2{fill:#79A1F7;}
	.st3{fill:#588DDB;}
	.st4{fill:#9B004E;}
	.st5{fill:#D80062;}
	.st6{fill:#F73C76;}
	.st7{fill:#FF4D7C;}
	.st8{fill:#FF6485;}
	.st9{fill:#F7768E;}
	.st10{fill:#FFFFFF;}
	.st11{fill:#C1C1C1;}
	.st12{fill:#1E1C1B;}
</style>
<g>
	<defs>
		<rect id="SVGID_1_" width="41" height="41"/>
	</defs>
	<clipPath id="SVGID_2_">
		<use xlink:href="#SVGID_1_"  style="overflow:visible;"/>
	</clipPath>
	<g class="st0">
		<path class="st1" d="M3.2,0h34.7C39.6,0,41,1.4,41,3.2v34.7c0,1.8-1.4,3.2-3.2,3.2H3.2C1.4,41,0,39.6,0,37.8V3.2
			C0,1.4,1.4,0,3.2,0z"/>
		<path d="M17.4,6h-1.4v1.4h1.4V6z"/>
		<path d="M18.8,6h-1.4v1.4h1.4V6z"/>
		<path d="M20.1,6h-1.4v1.4h1.4V6z"/>
		<path d="M21.5,6h-1.4v1.4h1.4V6z"/>
		<path d="M22.8,6h-1.4v1.4h1.4V6z"/>
		<path d="M24.1,6h-1.4v1.4h1.4V6z"/>
		<path d="M25.5,6h-1.4v1.4h1.4V6z"/>
		<path d="M14.7,7.3h-1.4v1.4h1.4V7.3z"/>
		<path d="M16.1,7.3h-1.4v1.4h1.4V7.3z"/>
		<path class="st1" d="M17.4,7.3h-1.4v1.4h1.4V7.3z"/>
		<path class="st1" d="M18.8,7.3h-1.4v1.4h1.4V7.3z"/>
		<path class="st1" d="M20.1,7.3h-1.4v1.4h1.4V7.3z"/>
		<path class="st1" d="M21.5,7.3h-1.4v1.4h1.4V7.3z"/>
		<path class="st1" d="M22.8,7.3h-1.4v1.4h1.4V7.3z"/>
		<path class="st1" d="M24.1,7.3h-1.4v1.4h1.4V7.3z"/>
		<path d="M25.5,7.3h-1.4v1.4h1.4V7.3z"/>
		<path d="M26.9,7.3h-1.4v1.4h1.4V7.3z"/>
		<path d="M13.4,8.7H12V10h1.4V8.7z"/>
		<path d="M14.7,8.7h-1.4V10h1.4V8.7z"/>
		<path class="st1" d="M16.1,8.7h-1.4V10h1.4V8.7z"/>
		<path class="st1" d="M17.4,8.7h-1.4V10h1.4V8.7z"/>
		<path class="st1" d="M18.8,8.7h-1.4V10h1.4V8.7z"/>
		<path class="st1" d="M20.1,8.7h-1.4V10h1.4V8.7z"/>
		<path class="st1" d="M21.5,8.7h-1.4V10h1.4V8.7z"/>
		<path class="st1" d="M22.8,8.7h-1.4V10h1.4V8.7z"/>
		<path class="st1" d="M24.1,8.7h-1.4V10h1.4V8.7z"/>
		<path class="st1" d="M25.5,8.7h-1.4V10h1.4V8.7z"/>
		<path class="st1" d="M26.9,8.7h-1.4V10h1.4V8.7z"/>
		<path d="M28.2,8.7h-1.4V10h1.4V8.7z"/>
		<path d="M29.6,8.7h-1.4V10h1.4V8.7z"/>
		<path d="M12,10h-1.4v1.4H12V10z"/>
		<path class="st1" d="M13.4,10H12v1.4h1.4V10z"/>
		<path class="st1" d="M14.7,10h-1.4v1.4h1.4V10z"/>
		<path class="st1" d="M16.1,10h-1.4v1.4h1.4V10z"/>
		<path class="st1" d="M17.4,10h-1.4v1.4h1.4V10z"/>
		<path class="st1" d="M18.8,10h-1.4v1.4h1.4V10z"/>
		<path class="st1" d="M20.1,10h-1.4v1.4h1.4V10z"/>
		<path class="st1" d="M21.5,10h-1.4v1.4h1.4V10z"/>
		<path class="st1" d="M22.8,10h-1.4v1.4h1.4V10z"/>
		<path class="st1" d="M24.1,10h-1.4v1.4h1.4V10z"/>
		<path class="st1" d="M25.5,10h-1.4v1.4h1.4V10z"/>
		<path class="st1" d="M26.9,10h-1.4v1.4h1.4V10z"/>
		<path class="st1" d="M28.2,10h-1.4v1.4h1.4V10z"/>
		<path d="M29.6,10h-1.4v1.4h1.4V10z"/>
		<path d="M30.9,10h-1.4v1.4h1.4V10z"/>
		<path d="M10.7,11.4H9.3v1.4h1.4V11.4z"/>
		<path class="st1" d="M12,11.4h-1.4v1.4H12V11.4z"/>
		<path class="st1" d="M13.4,11.4H12v1.4h1.4V11.4z"/>
		<path d="M14.7,11.4h-1.4v1.4h1.4V11.4z"/>
		<path d="M16.1,11.4h-1.4v1.4h1.4V11.4z"/>
		<path d="M17.4,11.4h-1.4v1.4h1.4V11.4z"/>
		<path d="M18.8,11.4h-1.4v1.4h1.4V11.4z"/>
		<path d="M20.1,11.4h-1.4v1.4h1.4V11.4z"/>
		<path d="M21.5,11.4h-1.4v1.4h1.4V11.4z"/>
		<path d="M22.8,11.4h-1.4v1.4h1.4V11.4z"/>
		<path d="M24.1,11.4h-1.4v1.4h1.4V11.4z"/>
		<path d="M25.5,11.4h-1.4v1.4h1.4V11.4z"/>
		<path d="M26.9,11.4h-1.4v1.4h1.4V11.4z"/>
		<path class="st1" d="M28.2,11.4h-1.4v1.4h1.4V11.4z"/>
		<path class="st1" d="M29.6,11.4h-1.4v1.4h1.4V11.4z"/>
		<path d="M30.9,11.4h-1.4v1.4h1.4V11.4z"/>
		<path d="M32.2,11.4h-1.4v1.4h1.4V11.4z"/>
		<path d="M9.3,12.7H8v1.4h1.4V12.7z"/>
		<path class="st1" d="M10.7,12.7H9.3v1.4h1.4V12.7z"/>
		<path class="st1" d="M12,12.7h-1.4v1.4H12V12.7z"/>
		<path d="M13.4,12.7H12v1.4h1.4V12.7z"/>
		<path d="M14.7,12.7h-1.4v1.4h1.4V12.7z"/>
		<path d="M16.1,12.7h-1.4v1.4h1.4V12.7z"/>
		<path d="M17.4,12.7h-1.4v1.4h1.4V12.7z"/>
		<path d="M18.8,12.7h-1.4v1.4h1.4V12.7z"/>
		<path d="M20.1,12.7h-1.4v1.4h1.4V12.7z"/>
		<path d="M21.5,12.7h-1.4v1.4h1.4V12.7z"/>
		<path d="M22.8,12.7h-1.4v1.4h1.4V12.7z"/>
		<path d="M24.1,12.7h-1.4v1.4h1.4V12.7z"/>
		<path d="M25.5,12.7h-1.4v1.4h1.4V12.7z"/>
		<path d="M26.9,12.7h-1.4v1.4h1.4V12.7z"/>
		<path d="M28.2,12.7h-1.4v1.4h1.4V12.7z"/>
		<path class="st1" d="M29.6,12.7h-1.4v1.4h1.4V12.7z"/>
		<path class="st1" d="M30.9,12.7h-1.4v1.4h1.4V12.7z"/>
		<path d="M32.2,12.7h-1.4v1.4h1.4V12.7z"/>
		<path d="M8,14.1H6.6v1.4H8V14.1z"/>
		<path class="st1" d="M9.3,14.1H8v1.4h1.4V14.1z"/>
		<path class="st1" d="M10.7,14.1H9.3v1.4h1.4V14.1z"/>
		<path d="M12,14.1h-1.4v1.4H12V14.1z"/>
		<path d="M13.4,14.1H12v1.4h1.4V14.1z"/>
		<path class="st2" d="M14.7,14.1h-1.4v1.4h1.4V14.1z"/>
		<path class="st3" d="M16.1,14.1h-1.4v1.4h1.4V14.1z"/>
		<path class="st2" d="M17.4,14.1h-1.4v1.4h1.4V14.1z"/>
		<path class="st2" d="M18.8,14.1h-1.4v1.4h1.4V14.1z"/>
		<path class="st2" d="M20.1,14.1h-1.4v1.4h1.4V14.1z"/>
		<path class="st2" d="M21.5,14.1h-1.4v1.4h1.4V14.1z"/>
		<path class="st2" d="M22.8,14.1h-1.4v1.4h1.4V14.1z"/>
		<path class="st3" d="M24.1,14.1h-1.4v1.4h1.4V14.1z"/>
		<path class="st2" d="M25.5,14.1h-1.4v1.4h1.4V14.1z"/>
		<path class="st3" d="M26.9,14.1h-1.4v1.4h1.4V14.1z"/>
		<path d="M28.2,14.1h-1.4v1.4h1.4V14.1z"/>
		<path d="M29.6,14.1h-1.4v1.4h1.4V14.1z"/>
		<path class="st1" d="M30.9,14.1h-1.4v1.4h1.4V14.1z"/>
		<path class="st1" d="M32.2,14.1h-1.4v1.4h1.4V14.1z"/>
		<path d="M33.6,14.1h-1.4v1.4h1.4V14.1z"/>
		<path d="M8,15.4H6.6v1.4H8V15.4z"/>
		<path class="st1" d="M9.3,15.4H8v1.4h1.4V15.4z"/>
		<path d="M10.7,15.4H9.3v1.4h1.4V15.4z"/>
		<path d="M12,15.4h-1.4v1.4H12V15.4z"/>
		<path class="st3" d="M13.4,15.4H12v1.4h1.4V15.4z"/>
		<path class="st2" d="M14.7,15.4h-1.4v1.4h1.4V15.4z"/>
		<path class="st2" d="M16.1,15.4h-1.4v1.4h1.4V15.4z"/>
		<path class="st2" d="M17.4,15.4h-1.4v1.4h1.4V15.4z"/>
		<path class="st2" d="M18.8,15.4h-1.4v1.4h1.4V15.4z"/>
		<path class="st2" d="M20.1,15.4h-1.4v1.4h1.4V15.4z"/>
		<path class="st2" d="M21.5,15.4h-1.4v1.4h1.4V15.4z"/>
		<path class="st2" d="M22.8,15.4h-1.4v1.4h1.4V15.4z"/>
		<path class="st2" d="M24.1,15.4h-1.4v1.4h1.4V15.4z"/>
		<path class="st2" d="M25.5,15.4h-1.4v1.4h1.4V15.4z"/>
		<path class="st2" d="M28.2,15.4h-1.4v1.4h1.4V15.4z"/>
		<path class="st2" d="M26.9,15.4h-1.4v1.4h1.4V15.4z"/>
		<path d="M29.6,15.4h-1.4v1.4h1.4V15.4z"/>
		<path d="M30.9,15.4h-1.4v1.4h1.4V15.4z"/>
		<path class="st1" d="M32.2,15.4h-1.4v1.4h1.4V15.4z"/>
		<path class="st1" d="M33.6,15.4h-1.4v1.4h1.4V15.4z"/>
		<path d="M34.9,15.4h-1.4v1.4h1.4V15.4z"/>
		<path d="M6.6,16.8H5.3v1.4h1.4V16.8z"/>
		<path class="st1" d="M8,16.8H6.6v1.4H8V16.8z"/>
		<path d="M9.3,16.8H8v1.4h1.4V16.8z"/>
		<path d="M10.7,16.8H9.3v1.4h1.4V16.8z"/>
		<path d="M12,16.8h-1.4v1.4H12V16.8z"/>
		<path d="M13.4,16.8H12v1.4h1.4V16.8z"/>
		<path d="M14.7,16.8h-1.4v1.4h1.4V16.8z"/>
		<path d="M16.1,16.8h-1.4v1.4h1.4V16.8z"/>
		<path d="M17.4,16.8h-1.4v1.4h1.4V16.8z"/>
		<path d="M18.8,16.8h-1.4v1.4h1.4V16.8z"/>
		<path d="M20.1,16.8h-1.4v1.4h1.4V16.8z"/>
		<path d="M21.5,16.8h-1.4v1.4h1.4V16.8z"/>
		<path d="M22.8,16.8h-1.4v1.4h1.4V16.8z"/>
		<path d="M24.1,16.8h-1.4v1.4h1.4V16.8z"/>
		<path d="M25.5,16.8h-1.4v1.4h1.4V16.8z"/>
		<path d="M26.9,16.8h-1.4v1.4h1.4V16.8z"/>
		<path d="M28.2,16.8h-1.4v1.4h1.4V16.8z"/>
		<path d="M29.6,16.8h-1.4v1.4h1.4V16.8z"/>
		<path d="M30.9,16.8h-1.4v1.4h1.4V16.8z"/>
		<path d="M32.2,16.8h-1.4v1.4h1.4V16.8z"/>
		<path class="st1" d="M33.6,16.8h-1.4v1.4h1.4V16.8z"/>
		<path d="M34.9,16.8h-1.4v1.4h1.4V16.8z"/>
		<path d="M5.3,18.1H3.9v1.4h1.4V18.1z"/>
		<path class="st1" d="M6.6,18.1H5.3v1.4h1.4V18.1z"/>
		<path d="M8,18.1H6.6v1.4H8V18.1z"/>
		<path d="M9.3,18.1H8v1.4h1.4V18.1z"/>
		<path class="st4" d="M10.7,18.1H9.3v1.4h1.4V18.1z"/>
		<path class="st4" d="M12,18.1h-1.4v1.4H12V18.1z"/>
		<path class="st4" d="M13.4,18.1H12v1.4h1.4V18.1z"/>
		<path class="st4" d="M14.7,18.1h-1.4v1.4h1.4V18.1z"/>
		<path class="st4" d="M16.1,18.1h-1.4v1.4h1.4V18.1z"/>
		<path class="st4" d="M17.4,18.1h-1.4v1.4h1.4V18.1z"/>
		<path class="st4" d="M18.8,18.1h-1.4v1.4h1.4V18.1z"/>
		<path class="st4" d="M20.1,18.1h-1.4v1.4h1.4V18.1z"/>
		<path class="st4" d="M21.5,18.1h-1.4v1.4h1.4V18.1z"/>
		<path class="st4" d="M22.8,18.1h-1.4v1.4h1.4V18.1z"/>
		<path class="st4" d="M24.1,18.1h-1.4v1.4h1.4V18.1z"/>
		<path class="st4" d="M25.5,18.1h-1.4v1.4h1.4V18.1z"/>
		<path class="st4" d="M26.9,18.1h-1.4v1.4h1.4V18.1z"/>
		<path class="st4" d="M28.2,18.1h-1.4v1.4h1.4V18.1z"/>
		<path class="st4" d="M29.6,18.1h-1.4v1.4h1.4V18.1z"/>
		<path class="st4" d="M30.9,18.1h-1.4v1.4h1.4V18.1z"/>
		<path d="M32.2,18.1h-1.4v1.4h1.4V18.1z"/>
		<path d="M33.6,18.1h-1.4v1.4h1.4V18.1z"/>
		<path class="st1" d="M34.9,18.1h-1.4v1.4h1.4V18.1z"/>
		<path d="M36.3,18.1h-1.4v1.4h1.4V18.1z"/>
		<path d="M5.3,19.5H3.9v1.4h1.4V19.5z"/>
		<path class="st1" d="M6.6,19.5H5.3v1.4h1.4V19.5z"/>
		<path d="M8,19.5H6.6v1.4H8V19.5z"/>
		<path class="st5" d="M9.3,19.5H8v1.4h1.4V19.5z"/>
		<path class="st5" d="M10.7,19.5H9.3v1.4h1.4V19.5z"/>
		<path class="st5" d="M12,19.5h-1.4v1.4H12V19.5z"/>
		<path class="st5" d="M13.4,19.5H12v1.4h1.4V19.5z"/>
		<path class="st5" d="M14.7,19.5h-1.4v1.4h1.4V19.5z"/>
		<path class="st5" d="M16.1,19.5h-1.4v1.4h1.4V19.5z"/>
		<path class="st5" d="M17.4,19.5h-1.4v1.4h1.4V19.5z"/>
		<path class="st5" d="M18.8,19.5h-1.4v1.4h1.4V19.5z"/>
		<path class="st5" d="M20.1,19.5h-1.4v1.4h1.4V19.5z"/>
		<path class="st5" d="M21.5,19.5h-1.4v1.4h1.4V19.5z"/>
		<path class="st5" d="M22.8,19.5h-1.4v1.4h1.4V19.5z"/>
		<path class="st5" d="M24.1,19.5h-1.4v1.4h1.4V19.5z"/>
		<path class="st5" d="M25.5,19.5h-1.4v1.4h1.4V19.5z"/>
		<path class="st5" d="M26.9,19.5h-1.4v1.4h1.4V19.5z"/>
		<path class="st5" d="M28.2,19.5h-1.4v1.4h1.4V19.5z"/>
		<path class="st5" d="M29.6,19.5h-1.4v1.4h1.4V19.5z"/>
		<path class="st5" d="M30.9,19.5h-1.4v1.4h1.4V19.5z"/>
		<path class="st5" d="M32.2,19.5h-1.4v1.4h1.4V19.5z"/>
		<path d="M33.6,19.5h-1.4v1.4h1.4V19.5z"/>
		<path class="st1" d="M34.9,19.5h-1.4v1.4h1.4V19.5z"/>
		<path d="M36.3,19.5h-1.4v1.4h1.4V19.5z"/>
		<path d="M5.3,20.8H3.9v1.4h1.4V20.8z"/>
		<path class="st1" d="M6.6,20.8H5.3v1.4h1.4V20.8z"/>
		<path d="M8,20.8H6.6v1.4H8V20.8z"/>
		<path class="st6" d="M9.3,20.8H8v1.4h1.4V20.8z"/>
		<path class="st6" d="M10.7,20.8H9.3v1.4h1.4V20.8z"/>
		<path class="st6" d="M12,20.8h-1.4v1.4H12V20.8z"/>
		<path class="st6" d="M13.4,20.8H12v1.4h1.4V20.8z"/>
		<path class="st6" d="M14.7,20.8h-1.4v1.4h1.4V20.8z"/>
		<path class="st6" d="M16.1,20.8h-1.4v1.4h1.4V20.8z"/>
		<path class="st6" d="M17.4,20.8h-1.4v1.4h1.4V20.8z"/>
		<path class="st6" d="M18.8,20.8h-1.4v1.4h1.4V20.8z"/>
		<path class="st6" d="M20.1,20.8h-1.4v1.4h1.4V20.8z"/>
		<path class="st6" d="M21.5,20.8h-1.4v1.4h1.4V20.8z"/>
		<path class="st6" d="M22.8,20.8h-1.4v1.4h1.4V20.8z"/>
		<path class="st6" d="M24.1,20.8h-1.4v1.4h1.4V20.8z"/>
		<path class="st6" d="M25.5,20.8h-1.4v1.4h1.4V20.8z"/>
		<path class="st6" d="M26.9,20.8h-1.4v1.4h1.4V20.8z"/>
		<path class="st6" d="M28.2,20.8h-1.4v1.4h1.4V20.8z"/>
		<path class="st6" d="M29.6,20.8h-1.4v1.4h1.4V20.8z"/>
		<path class="st6" d="M30.9,20.8h-1.4v1.4h1.4V20.8z"/>
		<path class="st6" d="M32.2,20.8h-1.4v1.4h1.4V20.8z"/>
		<path d="M33.6,20.8h-1.4v1.4h1.4V20.8z"/>
		<path class="st1" d="M34.9,20.8h-1.4v1.4h1.4V20.8z"/>
		<path d="M36.3,20.8h-1.4v1.4h1.4V20.8z"/>
		<path d="M5.3,22.2H3.9v1.4h1.4V22.2z"/>
		<path class="st1" d="M6.6,22.2H5.3v1.4h1.4V22.2z"/>
		<path d="M8,22.2H6.6v1.4H8V22.2z"/>
		<path class="st7" d="M9.3,22.2H8v1.4h1.4V22.2z"/>
		<path class="st7" d="M10.7,22.2H9.3v1.4h1.4V22.2z"/>
		<path class="st7" d="M12,22.2h-1.4v1.4H12V22.2z"/>
		<path class="st7" d="M13.4,22.2H12v1.4h1.4V22.2z"/>
		<path class="st7" d="M14.7,22.2h-1.4v1.4h1.4V22.2z"/>
		<path class="st7" d="M16.1,22.2h-1.4v1.4h1.4V22.2z"/>
		<path class="st7" d="M17.4,22.2h-1.4v1.4h1.4V22.2z"/>
		<path class="st7" d="M18.8,22.2h-1.4v1.4h1.4V22.2z"/>
		<path class="st7" d="M20.1,22.2h-1.4v1.4h1.4V22.2z"/>
		<path class="st7" d="M21.5,22.2h-1.4v1.4h1.4V22.2z"/>
		<path class="st7" d="M22.8,22.2h-1.4v1.4h1.4V22.2z"/>
		<path class="st7" d="M24.1,22.2h-1.4v1.4h1.4V22.2z"/>
		<path class="st7" d="M25.5,22.2h-1.4v1.4h1.4V22.2z"/>
		<path class="st7" d="M26.9,22.2h-1.4v1.4h1.4V22.2z"/>
		<path class="st7" d="M28.2,22.2h-1.4v1.4h1.4V22.2z"/>
		<path class="st7" d="M29.6,22.2h-1.4v1.4h1.4V22.2z"/>
		<path class="st7" d="M30.9,22.2h-1.4v1.4h1.4V22.2z"/>
		<path class="st7" d="M32.2,22.2h-1.4v1.4h1.4V22.2z"/>
		<path d="M33.6,22.2h-1.4v1.4h1.4V22.2z"/>
		<path class="st1" d="M34.9,22.2h-1.4v1.4h1.4V22.2z"/>
		<path d="M36.3,22.2h-1.4v1.4h1.4V22.2z"/>
		<path d="M5.3,23.5H3.9v1.4h1.4V23.5z"/>
		<path class="st1" d="M6.6,23.5H5.3v1.4h1.4V23.5z"/>
		<path d="M8,23.5H6.6v1.4H8V23.5z"/>
		<path class="st8" d="M9.3,23.5H8v1.4h1.4V23.5z"/>
		<path class="st8" d="M10.7,23.5H9.3v1.4h1.4V23.5z"/>
		<path class="st8" d="M12,23.5h-1.4v1.4H12V23.5z"/>
		<path class="st8" d="M13.4,23.5H12v1.4h1.4V23.5z"/>
		<path d="M14.7,23.5h-1.4v1.4h1.4V23.5z"/>
		<path d="M16.1,23.5h-1.4v1.4h1.4V23.5z"/>
		<path d="M17.4,23.5h-1.4v1.4h1.4V23.5z"/>
		<path d="M18.8,23.5h-1.4v1.4h1.4V23.5z"/>
		<path class="st8" d="M20.1,23.5h-1.4v1.4h1.4V23.5z"/>
		<path class="st8" d="M21.5,23.5h-1.4v1.4h1.4V23.5z"/>
		<path d="M22.8,23.5h-1.4v1.4h1.4V23.5z"/>
		<path d="M24.1,23.5h-1.4v1.4h1.4V23.5z"/>
		<path d="M25.5,23.5h-1.4v1.4h1.4V23.5z"/>
		<path d="M26.9,23.5h-1.4v1.4h1.4V23.5z"/>
		<path class="st8" d="M28.2,23.5h-1.4v1.4h1.4V23.5z"/>
		<path class="st8" d="M29.6,23.5h-1.4v1.4h1.4V23.5z"/>
		<path class="st8" d="M30.9,23.5h-1.4v1.4h1.4V23.5z"/>
		<path class="st8" d="M32.2,23.5h-1.4v1.4h1.4V23.5z"/>
		<path d="M33.6,23.5h-1.4v1.4h1.4V23.5z"/>
		<path class="st1" d="M34.9,23.5h-1.4v1.4h1.4V23.5z"/>
		<path d="M36.3,23.5h-1.4v1.4h1.4V23.5z"/>
		<path d="M5.3,24.9H3.9v1.4h1.4V24.9z"/>
		<path class="st1" d="M6.6,24.9H5.3v1.4h1.4V24.9z"/>
		<path d="M8,24.9H6.6v1.4H8V24.9z"/>
		<path class="st9" d="M9.3,24.9H8v1.4h1.4V24.9z"/>
		<path class="st9" d="M10.7,24.9H9.3v1.4h1.4V24.9z"/>
		<path class="st9" d="M12,24.9h-1.4v1.4H12V24.9z"/>
		<path d="M13.4,24.9H12v1.4h1.4V24.9z"/>
		<path class="st10" d="M14.7,24.9h-1.4v1.4h1.4V24.9z"/>
		<path class="st10" d="M16.1,24.9h-1.4v1.4h1.4V24.9z"/>
		<path class="st10" d="M17.4,24.9h-1.4v1.4h1.4V24.9z"/>
		<path class="st11" d="M18.8,24.9h-1.4v1.4h1.4V24.9z"/>
		<path d="M20.1,24.9h-1.4v1.4h1.4V24.9z"/>
		<path d="M21.5,24.9h-1.4v1.4h1.4V24.9z"/>
		<path class="st10" d="M22.8,24.9h-1.4v1.4h1.4V24.9z"/>
		<path class="st10" d="M24.1,24.9h-1.4v1.4h1.4V24.9z"/>
		<path class="st10" d="M25.5,24.9h-1.4v1.4h1.4V24.9z"/>
		<path class="st11" d="M26.9,24.9h-1.4v1.4h1.4V24.9z"/>
		<path d="M28.2,24.9h-1.4v1.4h1.4V24.9z"/>
		<path class="st9" d="M29.6,24.9h-1.4v1.4h1.4V24.9z"/>
		<path class="st9" d="M30.9,24.9h-1.4v1.4h1.4V24.9z"/>
		<path class="st9" d="M32.2,24.9h-1.4v1.4h1.4V24.9z"/>
		<path d="M33.6,24.9h-1.4v1.4h1.4V24.9z"/>
		<path class="st1" d="M34.9,24.9h-1.4v1.4h1.4V24.9z"/>
		<path d="M36.3,24.9h-1.4v1.4h1.4V24.9z"/>
		<path d="M6.6,26.2H5.3v1.4h1.4V26.2z"/>
		<path class="st1" d="M8,26.2H6.6v1.4H8V26.2z"/>
		<path d="M9.3,26.2H8v1.4h1.4V26.2z"/>
		<path d="M10.7,26.2H9.3v1.4h1.4V26.2z"/>
		<path d="M12,26.2h-1.4v1.4H12V26.2z"/>
		<path class="st11" d="M13.4,26.2H12v1.4h1.4V26.2z"/>
		<path class="st10" d="M14.7,26.2h-1.4v1.4h1.4V26.2z"/>
		<path class="st10" d="M16.1,26.2h-1.4v1.4h1.4V26.2z"/>
		<path class="st10" d="M17.4,26.2h-1.4v1.4h1.4V26.2z"/>
		<path class="st10" d="M18.8,26.2h-1.4v1.4h1.4V26.2z"/>
		<path class="st10" d="M20.1,26.2h-1.4v1.4h1.4V26.2z"/>
		<path class="st10" d="M21.5,26.2h-1.4v1.4h1.4V26.2z"/>
		<path class="st10" d="M22.8,26.2h-1.4v1.4h1.4V26.2z"/>
		<path class="st10" d="M24.1,26.2h-1.4v1.4h1.4V26.2z"/>
		<path class="st10" d="M25.5,26.2h-1.4v1.4h1.4V26.2z"/>
		<path class="st10" d="M26.9,26.2h-1.4v1.4h1.4V26.2z"/>
		<path class="st10" d="M28.2,26.2h-1.4v1.4h1.4V26.2z"/>
		<path d="M29.6,26.2h-1.4v1.4h1.4V26.2z"/>
		<path d="M30.9,26.2h-1.4v1.4h1.4V26.2z"/>
		<path d="M32.2,26.2h-1.4v1.4h1.4V26.2z"/>
		<path d="M33.6,26.2h-1.4v1.4h1.4V26.2z"/>
		<path class="st1" d="M34.9,26.2h-1.4v1.4h1.4V26.2z"/>
		<path d="M36.3,26.2h-1.4v1.4h1.4V26.2z"/>
		<path d="M6.6,27.6H5.3v1.4h1.4V27.6z"/>
		<path class="st1" d="M8,27.6H6.6v1.4H8V27.6z"/>
		<path d="M9.3,27.6H8v1.4h1.4V27.6z"/>
		<path class="st12" d="M10.7,27.6H9.3v1.4h1.4V27.6z"/>
		<path class="st10" d="M12,27.6h-1.4v1.4H12V27.6z"/>
		<path class="st10" d="M13.4,27.6H12v1.4h1.4V27.6z"/>
		<path class="st10" d="M14.7,27.6h-1.4v1.4h1.4V27.6z"/>
		<path class="st10" d="M16.1,27.6h-1.4v1.4h1.4V27.6z"/>
		<path class="st10" d="M17.4,27.6h-1.4v1.4h1.4V27.6z"/>
		<path class="st10" d="M18.8,27.6h-1.4v1.4h1.4V27.6z"/>
		<path class="st10" d="M20.1,27.6h-1.4v1.4h1.4V27.6z"/>
		<path class="st10" d="M21.5,27.6h-1.4v1.4h1.4V27.6z"/>
		<path class="st10" d="M22.8,27.6h-1.4v1.4h1.4V27.6z"/>
		<path class="st10" d="M24.1,27.6h-1.4v1.4h1.4V27.6z"/>
		<path class="st10" d="M25.5,27.6h-1.4v1.4h1.4V27.6z"/>
		<path class="st10" d="M26.9,27.6h-1.4v1.4h1.4V27.6z"/>
		<path class="st10" d="M28.2,27.6h-1.4v1.4h1.4V27.6z"/>
		<path class="st10" d="M29.6,27.6h-1.4v1.4h1.4V27.6z"/>
		<path class="st12" d="M30.9,27.6h-1.4v1.4h1.4V27.6z"/>
		<path d="M32.2,27.6h-1.4v1.4h1.4V27.6z"/>
		<path d="M33.6,27.6h-1.4v1.4h1.4V27.6z"/>
		<path class="st1" d="M34.9,27.6h-1.4v1.4h1.4V27.6z"/>
		<path d="M36.3,27.6h-1.4v1.4h1.4V27.6z"/>
		<path d="M8,28.9H6.6v1.4H8V28.9z"/>
		<path d="M9.3,28.9H8v1.4h1.4V28.9z"/>
		<path class="st11" d="M10.7,28.9H9.3v1.4h1.4V28.9z"/>
		<path class="st10" d="M12,28.9h-1.4v1.4H12V28.9z"/>
		<path class="st10" d="M13.4,28.9H12v1.4h1.4V28.9z"/>
		<path class="st10" d="M14.7,28.9h-1.4v1.4h1.4V28.9z"/>
		<path class="st10" d="M16.1,28.9h-1.4v1.4h1.4V28.9z"/>
		<path class="st10" d="M17.4,28.9h-1.4v1.4h1.4V28.9z"/>
		<path class="st10" d="M18.8,28.9h-1.4v1.4h1.4V28.9z"/>
		<path class="st2" d="M20.1,28.9h-1.4v1.4h1.4V28.9z"/>
		<path class="st2" d="M21.5,28.9h-1.4v1.4h1.4V28.9z"/>
		<path class="st11" d="M22.8,28.9h-1.4v1.4h1.4V28.9z"/>
		<path class="st10" d="M24.1,28.9h-1.4v1.4h1.4V28.9z"/>
		<path class="st10" d="M25.5,28.9h-1.4v1.4h1.4V28.9z"/>
		<path class="st10" d="M26.9,28.9h-1.4v1.4h1.4V28.9z"/>
		<path class="st10" d="M28.2,28.9h-1.4v1.4h1.4V28.9z"/>
		<path class="st10" d="M29.6,28.9h-1.4v1.4h1.4V28.9z"/>
		<path class="st11" d="M30.9,28.9h-1.4v1.4h1.4V28.9z"/>
		<path d="M32.2,28.9h-1.4v1.4h1.4V28.9z"/>
		<path d="M33.6,28.9h-1.4v1.4h1.4V28.9z"/>
		<path class="st1" d="M34.9,28.9h-1.4v1.4h1.4V28.9z"/>
		<path d="M36.3,28.9h-1.4v1.4h1.4V28.9z"/>
		<path d="M8,30.2H6.6v1.4H8V30.2z"/>
		<path class="st1" d="M9.3,30.2H8v1.4h1.4V30.2z"/>
		<path class="st10" d="M10.7,30.2H9.3v1.4h1.4V30.2z"/>
		<path class="st11" d="M12,30.2h-1.4v1.4H12V30.2z"/>
		<path class="st10" d="M13.4,30.2H12v1.4h1.4V30.2z"/>
		<path class="st3" d="M14.7,30.2h-1.4v1.4h1.4V30.2z"/>
		<path class="st2" d="M16.1,30.2h-1.4v1.4h1.4V30.2z"/>
		<path class="st2" d="M17.4,30.2h-1.4v1.4h1.4V30.2z"/>
		<path class="st2" d="M18.8,30.2h-1.4v1.4h1.4V30.2z"/>
		<path class="st2" d="M20.1,30.2h-1.4v1.4h1.4V30.2z"/>
		<path class="st2" d="M21.5,30.2h-1.4v1.4h1.4V30.2z"/>
		<path class="st2" d="M22.8,30.2h-1.4v1.4h1.4V30.2z"/>
		<path class="st2" d="M24.1,30.2h-1.4v1.4h1.4V30.2z"/>
		<path class="st2" d="M25.5,30.2h-1.4v1.4h1.4V30.2z"/>
		<path class="st2" d="M26.9,30.2h-1.4v1.4h1.4V30.2z"/>
		<path class="st11" d="M28.2,30.2h-1.4v1.4h1.4V30.2z"/>
		<path class="st10" d="M29.6,30.2h-1.4v1.4h1.4V30.2z"/>
		<path class="st10" d="M30.9,30.2h-1.4v1.4h1.4V30.2z"/>
		<path d="M32.2,30.2h-1.4v1.4h1.4V30.2z"/>
		<path class="st1" d="M33.6,30.2h-1.4v1.4h1.4V30.2z"/>
		<path d="M34.9,30.2h-1.4v1.4h1.4V30.2z"/>
		<path d="M9.3,31.6H8v1.4h1.4V31.6z"/>
		<path class="st10" d="M10.7,31.6H9.3v1.4h1.4V31.6z"/>
		<path d="M12,31.6h-1.4v1.4H12V31.6z"/>
		<path class="st12" d="M13.4,31.6H12v1.4h1.4V31.6z"/>
		<path class="st2" d="M14.7,31.6h-1.4v1.4h1.4V31.6z"/>
		<path class="st2" d="M16.1,31.6h-1.4v1.4h1.4V31.6z"/>
		<path class="st2" d="M17.4,31.6h-1.4v1.4h1.4V31.6z"/>
		<path class="st2" d="M18.8,31.6h-1.4v1.4h1.4V31.6z"/>
		<path class="st2" d="M20.1,31.6h-1.4v1.4h1.4V31.6z"/>
		<path class="st2" d="M21.5,31.6h-1.4v1.4h1.4V31.6z"/>
		<path class="st2" d="M22.8,31.6h-1.4v1.4h1.4V31.6z"/>
		<path class="st2" d="M24.1,31.6h-1.4v1.4h1.4V31.6z"/>
		<path class="st2" d="M25.5,31.6h-1.4v1.4h1.4V31.6z"/>
		<path class="st3" d="M26.9,31.6h-1.4v1.4h1.4V31.6z"/>
		<path class="st12" d="M28.2,31.6h-1.4v1.4h1.4V31.6z"/>
		<path class="st12" d="M29.6,31.6h-1.4v1.4h1.4V31.6z"/>
		<path class="st11" d="M30.9,31.6h-1.4v1.4h1.4V31.6z"/>
		<path class="st1" d="M32.2,31.6h-1.4v1.4h1.4V31.6z"/>
		<path d="M33.6,31.6h-1.4v1.4h1.4V31.6z"/>
		<path d="M9.3,32.9H8v1.4h1.4V32.9z"/>
		<path class="st1" d="M10.7,32.9H9.3v1.4h1.4V32.9z"/>
		<path d="M12,32.9h-1.4v1.4H12V32.9z"/>
		<path d="M13.4,32.9H12v1.4h1.4V32.9z"/>
		<path class="st12" d="M14.7,32.9h-1.4v1.4h1.4V32.9z"/>
		<path class="st2" d="M16.1,32.9h-1.4v1.4h1.4V32.9z"/>
		<path class="st2" d="M17.4,32.9h-1.4v1.4h1.4V32.9z"/>
		<path class="st2" d="M18.8,32.9h-1.4v1.4h1.4V32.9z"/>
		<path class="st2" d="M20.1,32.9h-1.4v1.4h1.4V32.9z"/>
		<path class="st2" d="M21.5,32.9h-1.4v1.4h1.4V32.9z"/>
		<path class="st2" d="M22.8,32.9h-1.4v1.4h1.4V32.9z"/>
		<path class="st3" d="M24.1,32.9h-1.4v1.4h1.4V32.9z"/>
		<path class="st2" d="M25.5,32.9h-1.4v1.4h1.4V32.9z"/>
		<path class="st12" d="M26.9,32.9h-1.4v1.4h1.4V32.9z"/>
		<path d="M28.2,32.9h-1.4v1.4h1.4V32.9z"/>
		<path d="M29.6,32.9h-1.4v1.4h1.4V32.9z"/>
		<path class="st1" d="M30.9,32.9h-1.4v1.4h1.4V32.9z"/>
		<path d="M32.2,32.9h-1.4v1.4h1.4V32.9z"/>
		<path d="M10.7,34.3H9.3v1.4h1.4V34.3z"/>
		<path class="st1" d="M12,34.3h-1.4v1.4H12V34.3z"/>
		<path d="M13.4,34.3H12v1.4h1.4V34.3z"/>
		<path d="M14.7,34.3h-1.4v1.4h1.4V34.3z"/>
		<path d="M16.1,34.3h-1.4v1.4h1.4V34.3z"/>
		<path d="M17.4,34.3h-1.4v1.4h1.4V34.3z"/>
		<path d="M18.8,34.3h-1.4v1.4h1.4V34.3z"/>
		<path d="M20.1,34.3h-1.4v1.4h1.4V34.3z"/>
		<path d="M21.5,34.3h-1.4v1.4h1.4V34.3z"/>
		<path d="M22.8,34.3h-1.4v1.4h1.4V34.3z"/>
		<path d="M24.1,34.3h-1.4v1.4h1.4V34.3z"/>
		<path d="M25.5,34.3h-1.4v1.4h1.4V34.3z"/>
		<path d="M26.9,34.3h-1.4v1.4h1.4V34.3z"/>
		<path d="M28.2,34.3h-1.4v1.4h1.4V34.3z"/>
		<path class="st1" d="M29.6,34.3h-1.4v1.4h1.4V34.3z"/>
		<path d="M30.9,34.3h-1.4v1.4h1.4V34.3z"/>
		<path d="M12,35.6h-1.4V37H12V35.6z"/>
		<path d="M13.4,35.6H12V37h1.4V35.6z"/>
		<path d="M14.7,35.6h-1.4V37h1.4V35.6z"/>
		<path d="M16.1,35.6h-1.4V37h1.4V35.6z"/>
		<path d="M17.4,35.6h-1.4V37h1.4V35.6z"/>
		<path d="M18.8,35.6h-1.4V37h1.4V35.6z"/>
		<path d="M20.1,35.6h-1.4V37h1.4V35.6z"/>
		<path d="M21.5,35.6h-1.4V37h1.4V35.6z"/>
		<path d="M22.8,35.6h-1.4V37h1.4V35.6z"/>
		<path d="M24.1,35.6h-1.4V37h1.4V35.6z"/>
		<path d="M25.5,35.6h-1.4V37h1.4V35.6z"/>
		<path d="M26.9,35.6h-1.4V37h1.4V35.6z"/>
		<path d="M28.2,35.6h-1.4V37h1.4V35.6z"/>
		<path d="M29.6,35.6h-1.4V37h1.4V35.6z"/>
		<path d="M12,37h-1.4v1.4H12V37z"/>
		<path d="M13.4,37H12v1.4h1.4V37z"/>
		<path d="M14.7,37h-1.4v1.4h1.4V37z"/>
		<path d="M16.1,37h-1.4v1.4h1.4V37z"/>
		<path d="M17.4,37h-1.4v1.4h1.4V37z"/>
		<path d="M18.8,37h-1.4v1.4h1.4V37z"/>
		<path d="M20.1,37h-1.4v1.4h1.4V37z"/>
		<path d="M21.5,37h-1.4v1.4h1.4V37z"/>
		<path d="M22.8,37h-1.4v1.4h1.4V37z"/>
		<path d="M24.1,37h-1.4v1.4h1.4V37z"/>
		<path d="M25.5,37h-1.4v1.4h1.4V37z"/>
		<path d="M26.9,37h-1.4v1.4h1.4V37z"/>
		<path d="M28.2,37h-1.4v1.4h1.4V37z"/>
		<path d="M29.6,37h-1.4v1.4h1.4V37z"/>
		<path d="M10.7,38.3H9.3v1.4h1.4V38.3z"/>
		<path d="M12,38.3h-1.4v1.4H12V38.3z"/>
		<path d="M13.4,38.3H12v1.4h1.4V38.3z"/>
		<path d="M16.1,38.3h-1.4v1.4h1.4V38.3z"/>
		<path d="M17.4,38.3h-1.4v1.4h1.4V38.3z"/>
		<path d="M18.8,38.3h-1.4v1.4h1.4V38.3z"/>
		<path d="M20.1,38.3h-1.4v1.4h1.4V38.3z"/>
		<path d="M21.5,38.3h-1.4v1.4h1.4V38.3z"/>
		<path d="M22.8,38.3h-1.4v1.4h1.4V38.3z"/>
		<path d="M24.1,38.3h-1.4v1.4h1.4V38.3z"/>
		<path d="M25.5,38.3h-1.4v1.4h1.4V38.3z"/>
		<path d="M28.2,38.3h-1.4v1.4h1.4V38.3z"/>
		<path d="M29.6,38.3h-1.4v1.4h1.4V38.3z"/>
		<path d="M30.9,38.3h-1.4v1.4h1.4V38.3z"/>
		<path d="M10.7,39.7H9.3V41h1.4V39.7z"/>
		<path d="M12,39.7h-1.4V41H12V39.7z"/>
		<path d="M16.1,39.7h-1.4V41h1.4V39.7z"/>
		<path d="M17.4,39.7h-1.4V41h1.4V39.7z"/>
		<path d="M18.8,39.7h-1.4V41h1.4V39.7z"/>
		<path d="M20.1,39.7h-1.4V41h1.4V39.7z"/>
		<path d="M21.5,39.7h-1.4V41h1.4V39.7z"/>
		<path d="M22.8,39.7h-1.4V41h1.4V39.7z"/>
		<path d="M24.1,39.7h-1.4V41h1.4V39.7z"/>
		<path d="M25.5,39.7h-1.4V41h1.4V39.7z"/>
		<path d="M29.6,39.7h-1.4V41h1.4V39.7z"/>
		<path d="M30.9,39.7h-1.4V41h1.4V39.7z"/>
	</g>
</g>
</svg>
